<?xml version="1.0" standalone="no"?>
<!DOCTYPE svg PUBLIC "-//W3C//DTD SVG 20010904//EN"
 "http://www.w3.org/TR/2001/REC-SVG-20010904/DTD/svg10.dtd">
<svg version="1.0" xmlns="http://www.w3.org/2000/svg"
 width="2000.000000pt" height="2000.000000pt" viewBox="0 0 2000.000000 2000.000000"
 preserveAspectRatio="xMidYMid meet">

<g transform="translate(0.000000,2000.000000) scale(0.100000,-0.100000)"
fill="#000000" stroke="none">
<path d="M4652 17680 c-18 -11 -37 -32 -42 -46 -14 -37 -13 -976 1 -1007 26
-57 27 -57 516 -57 l450 0 48 -176 c44 -157 63 -200 81 -181 3 3 27 83 53 178
l48 174 463 5 462 5 24 28 24 28 0 500 c0 551 2 536 -62 558 -21 8 -344 11
-1032 11 -983 0 -1002 0 -1034 -20z m2067 -37 c21 -18 21 -22 21 -507 1 -444
-1 -490 -16 -507 -16 -18 -43 -19 -482 -21 l-466 -3 -42 -150 c-23 -82 -43
-148 -43 -145 -3 19 -81 281 -86 290 -4 7 -159 10 -466 10 -446 0 -460 1 -479
20 -19 19 -20 33 -20 500 l0 481 25 24 24 25 1004 0 c942 0 1006 -1 1026 -17z"/>
<path d="M4926 17447 c-11 -8 -17 -23 -14 -38 l3 -24 774 -3 c613 -2 776 0
783 10 12 20 10 35 -8 52 -14 14 -97 16 -768 16 -603 0 -756 -3 -770 -13z"/>
<path d="M4921 17256 c-7 -8 -11 -25 -9 -38 l3 -23 774 0 c726 0 775 1 785 18
8 12 8 22 0 35 -10 16 -60 17 -776 20 -659 2 -767 0 -777 -12z"/>
<path d="M4921 17066 c-7 -8 -11 -25 -9 -38 l3 -23 774 0 c726 0 775 1 785 18
8 12 8 22 0 35 -10 16 -60 17 -776 20 -659 2 -767 0 -777 -12z"/>
<path d="M4922 16878 c-16 -16 -15 -43 2 -57 9 -8 173 -10 591 -9 538 3 579 4
589 21 8 12 8 22 0 35 -10 16 -51 17 -591 20 -442 2 -582 -1 -591 -10z"/>
<path d="M9100 17498 c-1 -74 -39 -441 -46 -447 -5 -4 -38 -18 -74 -31 -36
-12 -91 -35 -122 -51 l-56 -29 -123 103 c-250 208 -238 200 -257 186 -9 -8
-115 -111 -235 -231 -144 -144 -216 -222 -211 -230 4 -7 67 -83 138 -168 72
-85 137 -162 144 -171 10 -13 6 -29 -22 -90 -19 -41 -42 -100 -52 -131 -10
-32 -22 -58 -28 -58 -6 0 -112 -9 -236 -20 -123 -11 -226 -20 -227 -20 -2 0
-3 -110 -3 -245 l0 -245 -2800 0 c-2790 0 -2801 0 -2840 -20 -22 -11 -52 -39
-67 -62 l-28 -41 0 -276 0 -276 3073 -3 3073 -2 -33 -40 -33 -40 -2812 0
-2813 0 0 -3080 0 -3080 -179 0 c-139 0 -181 -3 -190 -14 -8 -9 -11 -99 -9
-307 l3 -294 185 -5 185 -5 3 -322 2 -323 650 0 650 0 2 -427 3 -428 1085 0
1085 0 5 425 5 425 3527 3 3528 2 2 260 3 259 51 -47 51 -47 6 -85 c12 -170
66 -867 72 -927 l6 -63 -1324 0 c-943 0 -1333 -3 -1356 -11 -40 -14 -65 -59
-56 -102 6 -27 168 -659 352 -1370 25 -98 44 -179 42 -181 -2 -1 -32 -19 -66
-40 -135 -81 -240 -190 -305 -319 -88 -174 -92 -416 -13 -666 47 -149 143
-336 202 -395 40 -40 177 -130 325 -214 123 -70 548 -284 697 -351 51 -24 69
-36 60 -42 -21 -13 -45 -11 -59 6 -16 19 -64 19 -80 0 -7 -8 -25 -15 -40 -15
-15 0 -33 7 -40 15 -7 8 -25 15 -40 15 -15 0 -33 -7 -40 -15 -18 -21 -34 -19
-68 10 -33 28 -53 31 -81 14 -14 -9 -43 -8 -127 7 -156 26 -358 25 -442 -3
-72 -24 -126 -62 -147 -103 -31 -60 -86 -226 -82 -247 l4 -23 -4398 0 c-3753
0 -4399 -2 -4399 -14 0 -8 7 -17 16 -20 9 -3 1992 -6 4408 -6 l4393 0 29 -41
c47 -69 143 -148 229 -189 53 -25 144 -54 267 -84 104 -26 292 -80 419 -121
247 -80 339 -101 471 -110 46 -3 100 -8 121 -11 32 -4 42 1 80 35 23 21 127
92 231 157 l188 118 47 -26 c110 -62 206 -70 275 -23 29 19 71 28 281 55 l246
31 39 -35 c56 -50 105 -63 166 -42 l48 16 80 -62 c199 -153 282 -222 300 -249
10 -16 29 -32 42 -35 12 -3 105 -4 206 -2 176 4 194 6 458 61 151 31 345 65
432 77 171 22 269 50 355 102 69 41 142 112 177 172 l27 46 -19 80 -19 80
1373 0 c755 0 1379 3 1388 6 9 3 16 12 16 20 0 12 -209 14 -1395 14 -1322 0
-1395 1 -1395 18 1 12 25 28 78 52 109 49 242 141 301 207 161 181 206 475
113 743 -23 66 -100 219 -140 278 -29 42 -29 44 -16 100 23 102 34 247 34 450
l0 200 48 12 c114 28 203 84 226 140 49 123 106 569 151 1175 24 332 22 320
51 336 28 14 54 57 54 86 0 10 -9 36 -18 57 -16 36 -17 50 -6 155 37 341 45
746 19 961 -34 285 -120 508 -244 630 -70 69 -131 102 -323 178 -221 87 -448
169 -629 227 l-117 37 -11 77 c-18 116 -25 258 -17 344 7 70 10 77 29 77 109
1 288 77 383 163 163 148 314 489 337 762 2 28 5 25 40 -40 l38 -70 -5 120
c-3 66 -12 148 -20 181 -32 130 -107 255 -188 314 -34 25 -44 42 -67 107 -34
102 -68 159 -144 239 -117 126 -289 220 -501 274 -44 11 -81 18 -83 17 -2 -2
18 -16 44 -30 27 -15 64 -41 83 -57 34 -30 33 -30 -49 11 -403 198 -856 56
-981 -306 -21 -61 -44 -209 -38 -247 3 -20 7 -16 30 26 21 41 26 46 31 30 12
-35 10 -78 -6 -134 -8 -30 -18 -84 -22 -120 -6 -52 -14 -72 -40 -102 -39 -47
-58 -104 -60 -187 l-2 -64 -89 -49 c-107 -59 -134 -83 -134 -118 0 -27 52 -85
116 -128 l31 -21 -18 -53 c-23 -67 -23 -85 -1 -97 18 -10 18 -12 0 -93 -10
-46 -21 -138 -25 -205 -6 -119 -5 -121 19 -146 31 -31 101 -47 233 -53 55 -3
109 -7 120 -9 23 -5 83 -115 92 -169 l5 -34 -48 10 c-27 5 -94 17 -149 27 -93
16 -106 21 -190 77 -330 221 -559 337 -738 373 -96 19 -145 40 -229 95 l-48
31 0 1182 0 1183 498 0 c374 0 501 3 510 12 9 9 12 174 12 679 0 367 -3 674
-6 683 -5 14 -60 16 -510 16 l-504 0 0 745 0 745 -1059 0 -1059 0 -32 40 -32
40 805 0 c725 0 805 2 811 16 3 9 6 44 6 79 l0 64 43 19 c56 25 93 67 107 120
14 53 6 95 -26 144 -23 36 -87 78 -117 78 -8 0 -17 13 -20 29 -8 38 -63 100
-104 117 -26 11 -140 14 -563 14 l-530 0 0 239 c0 145 -4 242 -10 246 -7 5
-411 44 -456 45 -6 0 -16 19 -23 41 -7 23 -30 82 -52 132 -33 76 -37 93 -27
108 7 10 73 88 146 174 72 87 132 164 132 173 0 14 -441 462 -455 462 -8 0
-125 -95 -262 -212 l-102 -87 -73 33 c-40 19 -98 42 -128 52 -30 10 -57 20
-59 21 -2 2 -14 108 -25 235 l-21 233 -332 3 -333 2 0 -22z m634 -60 c3 -24
13 -126 21 -228 9 -102 19 -188 23 -191 4 -3 43 -18 87 -34 44 -15 106 -40
137 -56 32 -16 63 -29 69 -29 6 0 63 44 127 98 63 53 142 119 174 146 l60 49
209 -209 208 -209 -135 -160 c-75 -88 -142 -169 -150 -180 -12 -19 -10 -28 21
-90 19 -39 47 -106 63 -150 l28 -80 232 -20 232 -19 -2 -226 -3 -225 -481 -3
-481 -2 5 122 c3 101 1 138 -17 210 -73 309 -322 528 -644 569 -307 40 -623
-134 -758 -418 -53 -112 -72 -209 -67 -355 l4 -128 -483 0 -483 0 0 228 0 228
232 19 231 20 23 66 c12 37 40 105 62 152 l40 87 -131 156 c-73 86 -140 166
-149 178 -17 22 -15 25 192 231 l208 208 147 -124 c81 -68 159 -134 174 -146
14 -12 31 -22 38 -23 7 0 43 15 80 34 37 18 100 44 138 56 39 13 73 26 77 29
3 3 14 94 22 201 9 107 19 210 22 228 l5 32 294 0 294 0 5 -42z m-174 -962
c331 -60 578 -351 582 -686 0 -47 -3 -104 -7 -127 l-7 -43 -693 0 -693 0 -6
28 c-31 161 2 347 86 490 47 81 180 211 258 255 157 87 310 113 480 83z m2709
-912 c27 -16 71 -72 71 -90 0 -5 -20 -17 -45 -28 -96 -39 -137 -159 -87 -253
17 -30 66 -70 107 -84 35 -13 35 -14 35 -71 l0 -58 -5180 0 -5180 0 0 243 c0
271 4 291 69 334 l34 23 5074 0 c4627 0 5077 -1 5102 -16z m186 -175 c45 -40
62 -95 46 -148 -20 -68 -99 -114 -166 -97 -13 3 -40 20 -60 37 -99 87 -38 239
97 239 39 0 54 -6 83 -31z m-1705 -489 l32 -40 -1347 0 c-1282 0 -1347 1
-1334 18 7 9 22 27 33 40 l19 22 1283 0 1282 0 32 -40z m2160 -805 l0 -725
-562 -2 -563 -3 -3 -512 -2 -513 -730 0 -730 0 -2 -475 -3 -475 -56 40 c-41
29 -76 68 -130 147 -155 224 -254 341 -359 422 -95 74 -219 149 -257 157 -37
7 -87 -13 -184 -76 -66 -44 -82 -50 -127 -50 l-52 0 0 -85 0 -85 50 0 c28 0
50 -3 50 -6 0 -4 -15 -27 -34 -53 -102 -140 -91 -198 67 -366 79 -85 92 -95
124 -95 27 0 47 -10 84 -41 69 -58 201 -134 269 -156 55 -17 58 -20 53 -45 -7
-36 2 -59 22 -52 9 4 15 19 15 40 0 31 3 34 28 34 20 0 41 -13 74 -47 63 -66
159 -199 225 -313 410 -704 644 -974 1028 -1185 39 -22 76 -47 84 -58 41 -57
137 -171 184 -219 42 -42 65 -57 103 -67 27 -7 69 -17 93 -23 45 -12 111 -66
111 -92 0 -22 99 -114 268 -249 135 -108 152 -125 152 -152 0 -16 5 -47 11
-68 10 -36 12 -38 39 -32 39 9 74 -26 83 -82 7 -43 16 -51 455 -437 l122 -108
0 -259 0 -259 -3510 0 -3510 0 0 240 0 240 -1090 0 -1090 0 0 -240 0 -240
-635 0 -635 0 0 294 0 295 105 102 105 102 -2 216 -3 216 -102 3 -103 3 0
3059 0 3060 5235 0 5235 0 0 -725z m1020 -845 l0 -80 -1055 0 -1055 0 0 80 0
80 1055 0 1055 0 0 -80z m-1342 -277 c-3 -17 -25 -18 -293 -18 -268 0 -290 1
-293 18 -3 16 16 17 293 17 277 0 296 -1 293 -17z m672 -153 c0 -20 -7 -20
-489 -20 -316 0 -492 4 -496 10 -3 6 -3 15 0 20 4 6 180 10 496 10 482 0 489
0 489 -20z m-795 -145 c0 -19 -7 -20 -145 -22 -148 -3 -178 3 -167 31 6 14 26
16 159 14 145 -3 153 -4 153 -23z m485 -165 c0 -20 -7 -20 -334 -20 -213 0
-337 4 -341 10 -17 27 17 30 341 30 327 0 334 0 334 -20z m-376 -136 c9 -3 16
-12 16 -19 0 -7 -7 -16 -16 -19 -29 -11 -562 -7 -569 4 -4 6 -4 17 -1 25 4 13
49 15 280 15 151 0 281 -3 290 -6z m-794 -194 l0 -120 -285 -285 c-157 -157
-289 -285 -293 -285 -4 0 -189 182 -412 405 l-405 405 698 0 697 0 0 -120z
m-610 -722 c0 -12 -391 -399 -400 -396 -5 2 -98 68 -209 148 l-201 145 0 460
0 460 405 -405 c223 -223 405 -408 405 -412z m-1585 622 c197 -116 329 -254
545 -571 40 -59 69 -84 245 -211 315 -228 874 -636 940 -687 99 -76 311 -270
460 -421 l140 -142 183 -86 c163 -76 183 -88 178 -106 -28 -117 -66 -529 -73
-803 -3 -134 -10 -243 -15 -243 -10 0 -162 119 -258 203 -35 31 -87 87 -115
124 -56 76 -104 106 -198 124 -71 13 -100 37 -213 176 -105 130 -118 141 -211
191 -44 24 -123 76 -175 115 -272 204 -433 407 -748 937 -140 236 -219 348
-298 425 -44 41 -59 50 -94 52 -94 6 -219 64 -346 160 -69 53 -73 58 -66 87 3
17 22 45 40 62 19 18 34 39 34 47 0 9 14 24 30 34 17 9 30 21 30 25 0 4 5 8
10 8 6 0 10 -8 10 -19 0 -62 78 -162 171 -216 104 -61 209 -90 209 -57 0 5
-38 23 -85 41 -148 56 -242 146 -260 246 -10 58 -64 155 -89 160 -12 2 -41 6
-66 9 -95 11 -199 60 -176 83 8 9 241 31 326 32 47 1 66 -5 120 -36 78 -46
179 -139 217 -199 26 -41 52 -53 60 -29 1 6 -21 41 -50 79 -56 76 -160 160
-246 203 l-54 26 -156 -12 c-86 -7 -166 -15 -178 -18 -13 -3 -23 0 -23 6 0 6
6 11 14 11 8 0 37 16 66 36 l52 36 38 -26 c32 -21 40 -23 50 -11 10 12 -6 29
-69 72 -2 1 2 10 9 18 10 12 10 19 1 28 -9 9 -21 1 -52 -36 -40 -47 -110 -92
-123 -80 -3 4 -6 27 -6 53 0 43 3 49 38 73 57 39 115 67 137 67 11 0 51 -18
90 -40z m2344 -100 l121 0 0 -665 c0 -366 -3 -665 -7 -665 -5 0 -189 181 -410
402 l-403 403 272 272 c226 226 275 270 289 262 10 -5 72 -9 138 -9z m-2648 6
c3 -3 3 -23 1 -45 -4 -38 -5 -39 -48 -43 l-44 -3 0 47 0 48 43 0 c24 0 46 -2
48 -4z m3629 -1172 l0 -1166 -47 40 c-83 68 -125 90 -237 122 -169 49 -181 55
-195 99 -15 50 -53 91 -86 91 -21 0 -29 -8 -42 -37 -8 -21 -16 -39 -18 -41 -2
-2 -81 33 -176 78 l-173 80 -155 158 c-86 87 -199 197 -251 245 l-95 86 321 1
c284 0 323 2 328 16 3 9 6 326 6 705 l0 689 410 0 410 0 0 -1166z m-3594 931
c-9 -26 41 -84 162 -188 27 -23 31 -31 22 -47 -18 -33 -48 -34 -93 -3 -62 42
-127 107 -127 127 0 11 -6 16 -17 14 -47 -10 17 -101 119 -171 46 -31 55 -48
42 -81 -11 -30 -36 -16 -107 60 -150 159 -159 203 -70 323 l26 33 23 -28 c13
-16 22 -33 20 -39z m129 -31 c33 -7 72 -14 87 -14 20 0 28 -7 37 -31 6 -18 11
-38 11 -45 0 -15 -35 -54 -47 -54 -12 0 -151 122 -170 149 -16 24 -16 24 3 17
10 -4 46 -14 79 -22z m2565 -1096 c0 -12 -638 -10 -645 2 -3 5 -106 82 -228
171 -122 89 -246 180 -275 202 l-53 40 198 199 198 198 402 -402 c222 -222
403 -406 403 -410z m2405 -17 c58 -77 124 -132 205 -175 l65 -35 -3 77 c-3 55
-1 74 7 67 29 -28 132 -357 116 -373 -2 -2 -118 20 -259 50 -212 44 -256 56
-256 70 0 50 -33 65 -52 23 -19 -43 -38 -31 -38 25 0 58 -20 113 -46 128 -14
8 -16 19 -11 68 9 81 27 141 37 124 8 -13 30 -6 30 10 0 5 16 44 35 87 l36 78
44 -83 c24 -45 65 -109 90 -141z m-257 -296 c-7 -100 -58 -189 -91 -156 -7 7
2 24 26 51 36 39 37 42 37 118 0 43 3 82 7 86 15 15 25 -31 21 -99z m-75 -53
c-24 -49 -43 -53 -43 -9 0 41 23 122 42 144 22 28 24 -89 1 -135z m141 -38 c8
-29 31 -31 47 -5 12 17 20 16 218 -24 113 -24 232 -48 264 -55 l57 -11 0 -57
c0 -39 6 -66 19 -86 15 -22 17 -35 10 -53 -29 -77 15 -68 46 9 31 77 81 150
129 187 68 54 140 53 223 -2 133 -90 125 -214 -24 -368 -35 -37 -95 -107 -131
-156 -58 -76 -71 -88 -97 -88 -24 0 -33 6 -45 32 -16 34 -37 43 -46 19 -8 -20
22 -73 47 -87 12 -6 37 -9 56 -6 33 6 35 4 93 -84 33 -49 64 -89 69 -89 4 0 4
-26 -1 -57 -12 -73 -3 -261 18 -378 25 -137 24 -153 -19 -190 -69 -60 -263
-105 -450 -105 -183 0 -345 46 -407 117 -44 50 -39 83 16 109 55 26 77 85 72
197 -3 50 -8 99 -11 107 -6 12 5 20 50 35 54 18 109 61 144 110 8 12 35 33 61
48 64 37 102 107 58 107 -11 0 -20 -6 -20 -13 0 -38 -94 -89 -205 -112 -156
-32 -474 -18 -526 24 -18 15 -21 27 -20 98 1 69 33 278 44 290 2 2 42 -6 88
-17 122 -29 219 -24 219 12 0 10 -24 13 -92 13 -71 0 -110 6 -166 24 -40 13
-75 27 -77 31 -3 4 5 36 17 71 l21 63 -28 21 c-99 72 -126 97 -123 117 2 15
31 37 97 74 l94 53 25 -20 c14 -10 34 -19 45 -19 27 0 84 63 98 110 13 42 33
45 43 4z m-804 -1088 c0 -7 -16 -49 -36 -92 -112 -241 -204 -635 -229 -976 -6
-78 -9 -88 -26 -88 -23 0 -24 26 -9 181 24 239 78 494 151 711 59 175 107 278
130 278 11 0 19 -6 19 -14z m682 -291 c-14 -85 -13 -139 2 -180 35 -90 147
-166 316 -216 58 -16 111 -22 236 -26 181 -6 309 9 452 53 83 25 102 25 102
-1 0 -17 -97 -47 -244 -77 -121 -24 -376 -30 -471 -9 -291 61 -446 182 -448
348 0 74 19 135 41 131 11 -2 16 -11 14 -23z m-1366 -103 c47 -183 135 -387
223 -516 31 -46 38 -63 29 -73 -16 -20 -39 5 -99 103 -85 141 -154 311 -198
489 -21 81 -20 98 6 93 10 -2 23 -35 39 -96z m-10118 -259 l2 -183 -89 0 -90
0 -3 -87 -3 -88 -182 -3 -183 -2 0 275 0 275 273 -2 272 -3 3 -182z m-83 -273
c-27 -27 -53 -50 -57 -50 -4 0 -8 23 -8 50 l0 50 57 0 57 0 -49 -50z m12985
-146 c0 -8 -11 -30 -25 -48 -77 -101 -124 -271 -132 -477 -8 -212 23 -428 94
-653 l25 -79 -22 -107 c-13 -59 -20 -118 -17 -131 4 -13 22 -35 42 -48 37 -25
46 -51 18 -51 -25 0 -74 34 -89 62 -18 32 -17 89 5 187 l18 84 -23 76 c-65
211 -94 398 -94 598 0 245 47 435 139 561 31 42 61 55 61 26z m-9670 -219 l0
-85 -1050 0 -1050 0 0 85 0 85 1050 0 1050 0 0 -85z m-1335 -275 c0 -13 -40
-15 -292 -18 -289 -2 -293 -2 -293 18 0 20 4 20 293 18 252 -3 292 -5 292 -18z
m10599 -98 c2 -4 12 -52 21 -107 20 -116 70 -264 117 -344 18 -31 63 -86 101
-124 70 -70 76 -81 52 -90 -21 -9 -117 83 -169 161 -57 88 -110 223 -135 349
-22 106 -25 145 -14 156 9 9 21 9 27 -1z m-9926 -54 c3 -17 -26 -18 -492 -18
-407 0 -496 2 -496 13 0 8 3 17 7 20 3 4 225 6 492 5 453 -3 486 -4 489 -20z
m-790 -145 c-3 -16 -19 -18 -158 -18 -139 0 -155 2 -158 18 -3 16 10 17 158
17 148 0 161 -1 158 -17z m9323 -70 c105 -319 335 -744 532 -988 149 -185 348
-355 514 -441 50 -26 73 -43 73 -56 0 -25 -10 -23 -89 16 -414 209 -809 738
-1057 1415 -39 108 -41 121 -15 121 15 0 24 -15 42 -67z m-8846 -98 c0 -20 -8
-20 -329 -23 -198 -1 -334 2 -339 7 -5 5 -7 17 -4 25 6 15 44 16 339 14 325
-3 333 -3 333 -23z m-362 -141 c3 -3 3 -12 0 -20 -4 -12 -55 -14 -294 -14
-282 0 -289 0 -289 20 0 20 7 20 288 20 159 0 291 -3 295 -6z m8891 -224 c61
-14 74 -35 112 -181 77 -296 180 -699 249 -969 40 -157 91 -355 113 -440 104
-400 152 -588 152 -598 0 -6 -7 -18 -16 -26 -14 -14 -163 -16 -1490 -16
l-1474 0 -29 28 c-26 23 -36 50 -77 207 -89 350 -162 634 -243 949 -45 176
-95 370 -111 430 -105 400 -146 573 -140 591 7 20 20 20 1336 25 731 3 1385 6
1454 7 69 2 143 -2 164 -7z m2551 -170 c115 -11 269 -42 393 -80 60 -18 72
-25 72 -43 0 -28 -36 -494 -50 -647 -43 -471 -95 -802 -132 -848 -66 -79 -260
-125 -673 -156 -360 -28 -1297 -87 -1414 -89 l-114 -2 -53 205 c-30 113 -54
212 -54 220 0 13 33 20 168 39 283 39 529 94 747 165 197 65 509 149 675 181
47 9 88 20 92 23 4 4 -4 84 -17 177 -35 251 -45 379 -45 591 l0 191 54 26 c53
26 114 43 186 50 19 2 40 5 45 5 6 1 60 -3 120 -8z m-5122 -1570 c35 -151 118
-445 132 -467 30 -44 74 -63 151 -63 l71 0 18 -41 c23 -49 63 -85 113 -99 23
-6 231 -10 559 -10 l521 0 94 -77 c187 -155 347 -324 411 -433 23 -40 36 -50
124 -89 54 -25 111 -54 127 -65 l29 -19 -139 -70 c-76 -39 -235 -115 -353
-169 l-215 -99 -70 12 c-160 28 -337 6 -388 -48 -19 -20 -23 -35 -23 -89 0
-35 -1 -64 -2 -64 -8 0 -290 133 -430 204 -336 168 -561 314 -706 458 -54 54
-102 98 -107 98 -6 0 -10 -10 -10 -22 0 -28 149 -173 256 -250 185 -132 494
-306 741 -418 67 -30 119 -58 117 -62 -7 -11 -52 -10 -59 2 -3 5 -25 14 -48
21 -56 14 -669 318 -827 409 -203 117 -274 173 -325 254 -124 199 -195 433
-195 639 0 185 52 327 167 456 58 65 231 188 244 174 4 -5 14 -37 22 -73z
m4547 -465 c36 -9 102 -35 147 -56 69 -33 98 -55 183 -141 216 -219 363 -459
415 -678 19 -84 19 -247 -1 -330 -48 -203 -171 -340 -417 -461 l-88 -44 -17
21 c-9 12 -36 35 -59 51 l-42 30 92 33 c197 70 358 162 330 191 -10 10 -20 7
-51 -13 -107 -72 -253 -131 -497 -203 -341 -100 -864 -209 -1457 -302 l-177
-27 -73 -58 c-100 -80 -131 -93 -179 -79 -23 7 -50 26 -68 48 l-31 37 -267
-33 c-212 -27 -274 -38 -296 -53 -75 -53 -156 -44 -270 32 -180 118 -490 503
-518 643 -10 48 -9 60 5 81 33 51 193 71 366 45 l75 -11 165 75 c394 179 755
363 1095 557 368 211 709 365 1150 522 132 46 147 50 265 55 188 8 298 -21
387 -101 41 -37 73 -47 73 -22 0 18 -65 77 -121 109 -72 42 -152 57 -302 57
l-134 0 5 26 5 27 121 -6 c67 -3 150 -13 186 -22z m-615 -121 c-38 -14 -79
-30 -90 -34 -11 -5 -90 -37 -175 -71 -187 -75 -372 -159 -540 -245 -69 -35
-128 -64 -131 -64 -3 0 -12 19 -19 43 -13 44 -72 163 -115 234 l-25 41 362 5
363 4 205 56 c224 61 273 70 165 31z m-1885 -156 c19 -34 41 -63 47 -66 24 -7
24 27 0 77 l-24 51 353 0 352 0 43 -67 c46 -73 104 -186 124 -245 l14 -36
-107 -65 c-117 -70 -427 -237 -441 -237 -5 0 -55 24 -112 54 l-103 53 3 94 c3
100 -20 229 -43 248 -21 17 -39 -10 -27 -41 28 -75 37 -278 11 -278 -4 0 -26
28 -47 63 -71 113 -184 231 -402 420 l-44 37 184 0 184 0 35 -62z m-1865
-1146 c35 -6 44 -14 73 -62 99 -166 116 -343 47 -481 -30 -58 -16 -59 -180 8
-205 83 -345 172 -391 248 -27 46 -31 108 -10 158 25 62 108 114 206 130 42 7
213 6 255 -1z m301 -45 c40 -62 76 -167 77 -230 3 -81 -18 -87 -26 -9 -8 75
-31 144 -68 205 -16 26 -29 52 -29 57 0 21 26 8 46 -23z m510 -71 c19 -39 37
-94 41 -123 7 -62 -3 -123 -21 -123 -9 0 -12 21 -12 78 0 80 -23 150 -74 222
-26 36 -17 60 11 34 11 -10 35 -50 55 -88z m-333 -2 c29 -66 54 -200 44 -228
-13 -34 -29 -9 -33 53 -5 68 -34 166 -65 219 -22 39 -15 63 11 36 9 -11 29
-46 43 -80z m167 -31 c36 -99 53 -219 29 -211 -8 3 -17 25 -20 54 -9 70 -27
129 -60 203 -30 66 -29 101 2 63 9 -12 31 -61 49 -109z m324 102 c20 -20 52
-109 60 -167 8 -52 -9 -131 -26 -126 -7 3 -10 33 -9 84 1 78 -1 87 -56 212 -7
17 12 15 31 -3z m3526 -197 c40 -24 61 -45 78 -78 26 -51 29 -118 7 -159 -44
-86 -218 -175 -480 -246 -53 -15 -102 -24 -109 -22 -26 10 -49 130 -43 219 4
73 29 165 55 205 5 7 89 33 187 58 99 26 181 48 184 51 14 14 74 0 121 -28z
m-4946 -106 c143 -164 680 -362 1389 -513 128 -27 137 -45 21 -41 -174 5 -273
27 -629 142 -71 23 -218 64 -325 91 -237 59 -334 103 -418 188 -72 71 -115
149 -106 187 l7 28 16 -24 c9 -14 29 -40 45 -58z m4221 -49 c-11 -61 -16 -74
-28 -70 -23 8 -5 107 19 107 12 0 14 -8 9 -37z m-147 -35 c-2 -30 -8 -43 -18
-43 -15 0 -18 40 -6 72 12 30 27 11 24 -29z m-168 -8 c0 -11 -7 -20 -15 -20
-27 0 -18 30 13 39 1 1 2 -8 2 -19z m1164 -132 c-26 -50 -122 -139 -189 -175
-83 -43 -174 -69 -291 -83 -138 -16 -311 -45 -499 -85 -255 -54 -281 -58 -447
-59 -133 -1 -160 2 -174 15 -15 15 -10 17 63 24 139 12 454 55 603 81 505 89
845 213 917 335 l18 30 8 -25 c6 -17 3 -35 -9 -58z m-3439 -4 c30 -31 -7 -96
-76 -133 -56 -30 -108 -23 -152 20 -27 27 -28 31 -15 52 8 12 38 34 68 50 63
32 148 37 175 11z m1845 -50 c36 -11 67 -29 93 -55 37 -37 39 -40 25 -62 -21
-30 -79 -51 -122 -43 -83 16 -161 135 -108 165 24 15 50 13 112 -5z"/>
<path d="M11715 15441 c-73 -44 -104 -111 -91 -194 13 -80 93 -147 176 -147
176 0 246 237 98 333 -52 34 -135 38 -183 8z m160 -41 c98 -61 78 -214 -32
-251 -118 -39 -224 89 -165 199 37 70 129 94 197 52z"/>
<path d="M9821 14771 c-17 -11 -10 -46 9 -46 17 0 26 33 13 46 -4 4 -14 4 -22
0z"/>
<path d="M9814 14627 c-9 -25 0 -62 16 -62 10 0 15 10 15 34 0 36 -21 54 -31
28z"/>
<path d="M12164 14534 c-4 -14 -2 -30 3 -35 5 -5 106 -8 244 -7 l234 3 0 30 0
30 -237 3 -238 2 -6 -26z"/>
<path d="M9814 14467 c-9 -25 0 -62 16 -62 10 0 15 10 15 34 0 36 -21 54 -31
28z"/>
<path d="M5550 14345 l0 -85 85 0 85 0 0 85 0 85 -85 0 -85 0 0 -85z m132 1
l3 -44 -47 -4 -48 -3 0 48 0 47 44 0 44 0 4 -44z"/>
<path d="M9150 14345 l0 -85 85 0 85 0 0 85 0 85 -85 0 -85 0 0 -85z m132 1
l3 -44 -47 -4 -48 -3 0 48 0 47 44 0 44 0 4 -44z"/>
<path d="M7382 14400 c-12 -12 -22 -25 -22 -30 0 -6 -9 -10 -20 -10 -11 0 -20
-7 -20 -15 0 -8 9 -15 20 -15 11 0 20 -4 20 -10 0 -23 41 -50 75 -50 34 0 75
27 75 50 0 6 9 10 20 10 11 0 20 7 20 15 0 8 -9 15 -20 15 -11 0 -20 5 -20 10
0 6 -9 19 -20 30 -26 26 -80 26 -108 0z m83 -55 c0 -27 -3 -30 -30 -30 -21 0
-31 5 -33 18 -6 33 6 49 35 45 24 -3 28 -8 28 -33z"/>
<path d="M12164 14364 c-4 -14 -2 -30 3 -35 5 -5 106 -8 244 -7 l234 3 0 30 0
30 -237 3 -238 2 -6 -26z"/>
<path d="M5757 14354 c-13 -13 5 -24 39 -24 24 0 34 5 34 15 0 10 -10 15 -33
15 -19 0 -37 -3 -40 -6z"/>
<path d="M5910 14346 c0 -12 11 -16 41 -16 52 0 48 24 -4 28 -28 2 -37 -1 -37
-12z"/>
<path d="M6070 14345 c0 -10 11 -15 35 -15 24 0 35 5 35 15 0 10 -11 15 -35
15 -24 0 -35 -5 -35 -15z"/>
<path d="M6230 14345 c0 -10 11 -15 35 -15 24 0 35 5 35 15 0 10 -11 15 -35
15 -24 0 -35 -5 -35 -15z"/>
<path d="M6380 14345 c0 -13 8 -16 38 -13 20 2 37 8 37 13 0 6 -17 11 -37 13
-30 3 -38 0 -38 -13z"/>
<path d="M6540 14345 c0 -10 11 -15 35 -15 24 0 35 5 35 15 0 10 -11 15 -35
15 -24 0 -35 -5 -35 -15z"/>
<path d="M6697 14354 c-13 -13 5 -24 39 -24 24 0 34 5 34 15 0 10 -10 15 -33
15 -19 0 -37 -3 -40 -6z"/>
<path d="M6850 14345 c0 -13 8 -16 38 -13 20 2 37 8 37 13 0 6 -17 11 -37 13
-30 3 -38 0 -38 -13z"/>
<path d="M7010 14345 c0 -10 11 -15 35 -15 24 0 35 5 35 15 0 10 -11 15 -35
15 -24 0 -35 -5 -35 -15z"/>
<path d="M7167 14353 c-16 -15 -5 -23 33 -23 29 0 40 4 40 15 0 10 -10 15 -33
15 -19 0 -37 -3 -40 -7z"/>
<path d="M7637 14353 c-16 -15 -5 -23 33 -23 29 0 40 4 40 15 0 10 -10 15 -33
15 -19 0 -37 -3 -40 -7z"/>
<path d="M7790 14345 c0 -10 11 -15 35 -15 24 0 35 5 35 15 0 10 -11 15 -35
15 -24 0 -35 -5 -35 -15z"/>
<path d="M7950 14345 c0 -10 11 -15 35 -15 24 0 35 5 35 15 0 10 -11 15 -35
15 -24 0 -35 -5 -35 -15z"/>
<path d="M8100 14346 c0 -12 11 -16 41 -16 52 0 48 24 -4 28 -28 2 -37 -1 -37
-12z"/>
<path d="M8260 14345 c0 -10 11 -15 35 -15 24 0 35 5 35 15 0 10 -11 15 -35
15 -24 0 -35 -5 -35 -15z"/>
<path d="M8417 14354 c-13 -13 5 -24 39 -24 24 0 34 5 34 15 0 10 -10 15 -33
15 -19 0 -37 -3 -40 -6z"/>
<path d="M8570 14345 c0 -13 8 -16 38 -13 20 2 37 8 37 13 0 6 -17 11 -37 13
-30 3 -38 0 -38 -13z"/>
<path d="M8730 14345 c0 -10 11 -15 35 -15 24 0 35 5 35 15 0 10 -11 15 -35
15 -24 0 -35 -5 -35 -15z"/>
<path d="M8887 14354 c-13 -13 5 -24 39 -24 24 0 34 5 34 15 0 10 -10 15 -33
15 -19 0 -37 -3 -40 -6z"/>
<path d="M9040 14346 c0 -12 11 -16 41 -16 52 0 48 24 -4 28 -28 2 -37 -1 -37
-12z"/>
<path d="M9814 14307 c-9 -25 0 -62 16 -62 10 0 15 10 15 34 0 36 -21 54 -31
28z"/>
<path d="M10422 13993 l3 -308 210 -3 211 -2 97 99 97 99 -2 208 -3 209 -308
3 -307 2 2 -307z m576 90 l2 -183 -90 0 -90 0 0 -90 0 -90 -182 2 -183 3 -3
260 c-1 143 0 265 3 272 3 11 62 13 272 11 l268 -3 3 -182z m-38 -226 c0 -1
-22 -25 -50 -52 l-50 -49 0 52 0 52 50 0 c28 0 50 -1 50 -3z"/>
<path d="M12178 14219 c-21 -12 -23 -42 -4 -58 9 -8 82 -11 242 -9 l229 3 3
24 c7 47 -14 51 -242 51 -125 0 -218 -5 -228 -11z"/>
<path d="M5620 14185 c0 -24 5 -35 15 -35 10 0 15 11 15 35 0 24 -5 35 -15 35
-10 0 -15 -11 -15 -35z"/>
<path d="M9220 14185 c0 -24 5 -35 15 -35 10 0 15 11 15 35 0 24 -5 35 -15 35
-10 0 -15 -11 -15 -35z"/>
<path d="M9814 14147 c-9 -25 0 -62 16 -62 10 0 15 10 15 34 0 36 -21 54 -31
28z"/>
<path d="M5860 13135 l0 -1015 1580 0 1580 0 5 23 c3 12 4 468 3 1012 l-3 990
-1582 3 -1583 2 0 -1015z m3130 291 l0 -683 -167 -167 -167 -167 -465 465
c-257 257 -471 466 -476 466 -5 0 -96 -87 -202 -192 l-193 -193 -315 315 -315
315 -393 -393 c-215 -215 -395 -392 -400 -392 -4 0 -7 295 -7 655 l0 655 1550
0 1550 0 0 -684z m-1990 -211 c168 -168 312 -305 320 -305 8 0 101 87 207 192
l193 193 470 -470 470 -470 158 158 c86 86 161 157 165 157 4 0 7 -115 7 -255
l0 -255 -1545 0 -1545 0 0 292 0 291 388 389 c213 213 392 388 397 388 6 0
147 -137 315 -305z"/>
<path d="M8300 13801 c-77 -24 -152 -94 -170 -160 -35 -127 34 -265 149 -300
211 -63 390 144 292 337 -47 93 -177 151 -271 123z m113 -42 c43 -12 101 -59
122 -99 52 -100 13 -220 -88 -271 -61 -32 -153 -24 -204 17 -133 107 -103 294
56 350 45 16 66 17 114 3z"/>
<path d="M5620 14025 c0 -24 5 -35 15 -35 10 0 15 11 15 35 0 24 -5 35 -15 35
-10 0 -15 -11 -15 -35z"/>
<path d="M9220 14025 c0 -24 5 -35 15 -35 10 0 15 11 15 35 0 24 -5 35 -15 35
-10 0 -15 -11 -15 -35z"/>
<path d="M9814 13987 c-9 -25 0 -62 16 -62 10 0 15 10 15 34 0 36 -21 54 -31
28z"/>
<path d="M3355 13863 c-11 -140 -9 -136 -68 -158 l-52 -20 -74 62 c-41 35 -81
63 -90 63 -15 0 -221 -198 -221 -212 0 -4 29 -41 65 -83 36 -42 65 -80 65 -85
0 -4 -9 -30 -21 -57 l-21 -50 -96 -7 c-53 -4 -102 -12 -109 -18 -15 -12 -18
-274 -4 -297 6 -9 43 -17 107 -23 54 -5 101 -12 105 -16 3 -4 14 -29 23 -55
16 -42 16 -50 4 -65 -8 -9 -38 -44 -66 -76 -29 -33 -52 -63 -52 -67 0 -11 213
-219 223 -219 6 0 37 24 71 53 98 84 87 80 142 56 27 -12 52 -26 55 -31 3 -5
9 -50 13 -100 3 -49 8 -94 12 -99 3 -5 74 -9 159 -9 l153 0 6 73 c13 146 11
141 68 165 58 24 47 28 145 -55 33 -29 66 -53 71 -53 10 0 222 207 222 217 0
3 -30 41 -66 85 l-65 79 22 54 22 54 76 6 c42 3 90 9 106 13 l30 8 3 134 c1
74 0 145 -3 157 -4 19 -14 22 -109 28 l-103 7 -23 54 -22 54 58 71 c33 39 63
78 69 85 7 11 -15 39 -95 119 -58 58 -111 105 -118 105 -8 0 -47 -28 -89 -61
l-75 -62 -54 19 c-60 20 -55 9 -69 167 l-7 67 -158 0 -158 0 -7 -77z m297 -62
c4 -52 11 -97 15 -101 5 -3 38 -19 76 -34 75 -32 61 -36 158 46 31 27 61 48
66 48 4 0 46 -38 91 -83 l83 -84 -66 -78 c-36 -42 -64 -83 -61 -89 3 -6 16
-37 29 -70 14 -32 31 -62 38 -67 8 -5 35 -9 60 -9 25 0 67 -3 93 -6 l47 -7 -3
-121 -3 -121 -99 -10 c-70 -7 -101 -14 -107 -25 -4 -8 -19 -41 -33 -74 -22
-48 -24 -62 -14 -75 7 -9 37 -45 66 -80 l54 -64 -83 -83 c-46 -46 -86 -84 -89
-84 -4 0 -39 27 -79 61 -80 67 -77 67 -172 27 -56 -23 -57 -23 -63 -73 -3 -27
-6 -67 -6 -87 0 -68 0 -68 -130 -68 l-118 0 -6 38 c-3 20 -8 67 -11 103 l-6
66 -68 26 c-38 15 -74 27 -80 27 -7 0 -44 -27 -83 -60 -40 -33 -75 -60 -78
-60 -4 0 -43 39 -88 86 l-82 86 53 61 c84 99 80 87 52 151 -14 31 -25 63 -25
71 0 18 -21 23 -130 33 l-85 7 -3 121 -3 121 53 6 c29 4 70 7 91 7 42 0 77 14
77 32 0 6 12 37 26 68 l26 58 -66 78 -67 78 87 87 87 87 71 -60 c39 -33 76
-62 81 -64 6 -2 42 9 80 24 l70 29 7 54 c4 30 10 76 14 102 l5 48 122 -3 122
-3 7 -94z"/>
<path d="M3453 13490 c-87 -18 -168 -71 -218 -144 -94 -140 -80 -315 35 -440
62 -67 134 -99 234 -104 105 -5 174 19 251 89 128 118 151 299 55 447 -74 116
-221 178 -357 152z m179 -56 c61 -20 140 -94 170 -159 33 -73 33 -191 -1 -258
-31 -60 -92 -121 -151 -150 -64 -31 -196 -32 -260 0 -99 49 -170 154 -178 263
-8 106 54 223 146 277 91 54 170 62 274 27z"/>
<path d="M5620 13865 c0 -24 5 -35 15 -35 10 0 15 11 15 35 0 24 -5 35 -15 35
-10 0 -15 -11 -15 -35z"/>
<path d="M9220 13865 c0 -24 5 -35 15 -35 10 0 15 11 15 35 0 24 -5 35 -15 35
-10 0 -15 -11 -15 -35z"/>
<path d="M9814 13827 c-9 -25 0 -62 16 -62 10 0 15 10 15 34 0 36 -21 54 -31
28z"/>
<path d="M5620 13705 c0 -24 5 -35 15 -35 10 0 15 11 15 35 0 24 -5 35 -15 35
-10 0 -15 -11 -15 -35z"/>
<path d="M9220 13705 c0 -24 5 -35 15 -35 10 0 15 11 15 35 0 24 -5 35 -15 35
-10 0 -15 -11 -15 -35z"/>
<path d="M9814 13667 c-9 -25 0 -62 16 -62 10 0 15 10 15 34 0 36 -21 54 -31
28z"/>
<path d="M5620 13545 c0 -24 5 -35 15 -35 10 0 15 11 15 35 0 24 -5 35 -15 35
-10 0 -15 -11 -15 -35z"/>
<path d="M9220 13545 c0 -24 5 -35 15 -35 10 0 15 11 15 35 0 24 -5 35 -15 35
-10 0 -15 -11 -15 -35z"/>
<path d="M9814 13507 c-9 -25 0 -62 16 -62 10 0 15 10 15 34 0 36 -21 54 -31
28z"/>
<path d="M5620 13385 c0 -24 5 -35 15 -35 10 0 15 11 15 35 0 24 -5 35 -15 35
-10 0 -15 -11 -15 -35z"/>
<path d="M9220 13385 c0 -24 5 -35 15 -35 10 0 15 11 15 35 0 24 -5 35 -15 35
-10 0 -15 -11 -15 -35z"/>
<path d="M9814 13347 c-9 -25 0 -62 16 -62 10 0 15 10 15 34 0 36 -21 54 -31
28z"/>
<path d="M5620 13240 c0 -11 -4 -20 -8 -20 -5 0 -18 -9 -30 -20 -33 -31 -30
-85 8 -118 17 -15 30 -32 30 -39 0 -7 7 -13 15 -13 8 0 15 9 15 20 0 11 5 20
10 20 22 0 50 41 50 75 0 32 -30 75 -52 75 -4 0 -8 9 -8 20 0 11 -7 20 -15 20
-8 0 -15 -9 -15 -20z m48 -89 c5 -32 -23 -54 -49 -40 -19 10 -26 49 -12 63 4
4 19 6 33 4 18 -2 26 -10 28 -27z"/>
<path d="M9220 13240 c0 -11 -4 -20 -8 -20 -5 0 -18 -9 -30 -20 -33 -31 -30
-85 8 -118 17 -15 30 -32 30 -39 0 -7 7 -13 15 -13 8 0 15 9 15 20 0 11 5 20
10 20 22 0 50 41 50 75 0 32 -30 75 -52 75 -4 0 -8 9 -8 20 0 11 -7 20 -15 20
-8 0 -15 -9 -15 -20z m48 -89 c5 -32 -23 -54 -49 -40 -19 10 -26 49 -12 63 4
4 19 6 33 4 18 -2 26 -10 28 -27z"/>
<path d="M9814 13187 c-9 -25 0 -62 16 -62 10 0 15 10 15 34 0 36 -21 54 -31
28z"/>
<path d="M9814 13027 c-9 -25 0 -62 16 -62 10 0 15 10 15 34 0 36 -21 54 -31
28z" />
<path d="M4619 13018 c-1 -2 -6 -36 -13 -76 -10 -69 -13 -75 -42 -87 -30 -13
-33 -11 -82 31 -28 24 -55 44 -60 44 -6 0 -44 -34 -86 -76 -79 -79 -83 -89
-41 -124 9 -7 25 -26 36 -41 18 -26 19 -31 5 -64 -14 -33 -17 -35 -63 -35 -96
0 -93 3 -93 -126 l0 -114 38 0 c83 0 108 -10 121 -46 12 -33 11 -36 -35 -90
l-47 -55 79 -80 c43 -43 81 -79 84 -79 3 0 19 12 35 27 17 14 40 35 52 46 19
17 25 17 56 6 31 -11 35 -17 41 -57 3 -25 6 -58 6 -73 l0 -29 114 0 114 0 6
31 c3 17 6 49 6 70 0 33 5 41 30 54 16 8 33 15 38 15 4 0 32 -20 61 -45 29
-25 55 -45 57 -45 10 0 154 151 154 161 0 6 -20 33 -44 61 -40 46 -43 53 -34
80 12 35 16 37 99 46 l64 7 3 111 3 111 -32 7 c-17 3 -51 6 -75 6 -41 0 -45 2
-59 36 l-15 36 45 51 c25 29 45 56 45 62 0 13 -142 155 -155 155 -6 0 -34 -20
-62 -45 l-52 -45 -35 17 c-34 16 -36 20 -36 64 0 26 -4 59 -10 73 -9 26 -11
26 -115 26 -58 0 -106 -1 -106 -2z m189 -78 c6 -90 10 -98 59 -120 25 -11 50
-20 56 -20 6 0 33 19 60 41 l49 42 55 -56 56 -55 -42 -49 c-40 -48 -50 -76
-32 -88 5 -3 12 -19 16 -35 9 -39 31 -50 99 -50 l56 0 0 -79 0 -79 -71 -9 -72
-8 -20 -57 -20 -56 41 -48 c47 -52 48 -46 -22 -121 l-39 -42 -39 32 c-75 61
-70 59 -124 36 -27 -12 -52 -27 -56 -33 -4 -6 -8 -37 -8 -68 l0 -58 -79 0 -78
0 -7 31 c-3 17 -6 47 -6 65 0 32 -4 36 -56 59 l-56 25 -38 -30 c-20 -16 -43
-36 -50 -45 -12 -14 -19 -10 -67 37 -29 29 -53 56 -53 60 0 5 18 31 39 58 l40
50 -23 53 -23 52 -67 9 -66 8 0 79 0 79 39 0 c52 0 101 10 101 22 0 5 9 27 20
50 22 45 22 44 -31 109 l-38 46 54 53 54 54 51 -43 c32 -27 57 -41 68 -38 63
20 97 37 99 49 1 7 5 39 8 71 l7 58 76 -3 77 -3 3 -35z"/>
<path d="M4625 12690 c-114 -59 -170 -183 -131 -295 58 -171 257 -227 393
-110 62 53 86 110 81 194 -5 88 -42 152 -112 196 -65 39 -169 46 -231 15z
m190 -39 c79 -35 121 -112 113 -207 -8 -91 -75 -162 -171 -179 -116 -22 -237
85 -237 210 1 65 61 153 125 181 43 19 123 17 170 -5z"/>
<path d="M5620 12905 c0 -24 5 -35 15 -35 10 0 15 11 15 35 0 24 -5 35 -15 35
-10 0 -15 -11 -15 -35z"/>
<path d="M9220 12905 c0 -24 5 -35 15 -35 10 0 15 11 15 35 0 24 -5 35 -15 35
-10 0 -15 -11 -15 -35z"/>
<path d="M9814 12867 c-9 -25 0 -62 16 -62 10 0 15 10 15 34 0 36 -21 54 -31
28z"/>
<path d="M5620 12745 c0 -24 5 -35 15 -35 10 0 15 11 15 35 0 24 -5 35 -15 35
-10 0 -15 -11 -15 -35z"/>
<path d="M9220 12745 c0 -24 5 -35 15 -35 10 0 15 11 15 35 0 24 -5 35 -15 35
-10 0 -15 -11 -15 -35z"/>
<path d="M9814 12707 c-9 -25 0 -62 16 -62 10 0 15 10 15 34 0 36 -21 54 -31
28z"/>
<path d="M5620 12585 c0 -24 5 -35 15 -35 10 0 15 11 15 35 0 24 -5 35 -15 35
-10 0 -15 -11 -15 -35z"/>
<path d="M9220 12585 c0 -24 5 -35 15 -35 10 0 15 11 15 35 0 24 -5 35 -15 35
-10 0 -15 -11 -15 -35z"/>
<path d="M9814 12547 c-9 -25 0 -62 16 -62 10 0 15 10 15 34 0 36 -21 54 -31
28z"/>
<path d="M5620 12425 c0 -24 5 -35 15 -35 10 0 15 11 15 35 0 24 -5 35 -15 35
-10 0 -15 -11 -15 -35z"/>
<path d="M9220 12425 c0 -24 5 -35 15 -35 10 0 15 11 15 35 0 24 -5 35 -15 35
-10 0 -15 -11 -15 -35z"/>
<path d="M9814 12387 c-9 -25 0 -62 16 -62 10 0 15 10 15 34 0 36 -21 54 -31
28z"/>
<path d="M5620 12265 c0 -24 5 -35 15 -35 10 0 15 11 15 35 0 24 -5 35 -15 35
-10 0 -15 -11 -15 -35z"/>
<path d="M9220 12265 c0 -24 5 -35 15 -35 10 0 15 11 15 35 0 24 -5 35 -15 35
-10 0 -15 -11 -15 -35z"/>
<path d="M9814 12227 c-9 -25 0 -62 16 -62 10 0 15 10 15 34 0 36 -21 54 -31
28z"/>
<path d="M5620 12105 c0 -24 5 -35 15 -35 10 0 15 11 15 35 0 24 -5 35 -15 35
-10 0 -15 -11 -15 -35z"/>
<path d="M9220 12105 c0 -24 5 -35 15 -35 10 0 15 11 15 35 0 24 -5 35 -15 35
-10 0 -15 -11 -15 -35z"/>
<path d="M9814 12067 c-9 -25 0 -62 16 -62 10 0 15 10 15 34 0 36 -21 54 -31
28z"/>
<path d="M5550 11945 l0 -85 85 0 85 0 0 85 0 85 -85 0 -85 0 0 -85z m132 1
l3 -44 -47 -4 -48 -3 0 48 0 47 44 0 44 0 4 -44z"/>
<path d="M7382 12000 c-12 -12 -22 -25 -22 -30 0 -6 -9 -10 -20 -10 -11 0 -20
-7 -20 -15 0 -8 9 -15 20 -15 11 0 20 -4 20 -10 0 -23 41 -50 75 -50 34 0 75
27 75 50 0 6 9 10 20 10 11 0 20 7 20 15 0 8 -9 15 -20 15 -11 0 -20 5 -20 10
0 6 -9 19 -20 30 -26 26 -80 26 -108 0z m83 -55 c0 -27 -3 -30 -30 -30 -21 0
-31 5 -33 18 -6 33 6 49 35 45 24 -3 28 -8 28 -33z"/>
<path d="M5757 11954 c-13 -13 5 -24 39 -24 24 0 34 5 34 15 0 10 -10 15 -33
15 -19 0 -37 -3 -40 -6z"/>
<path d="M5910 11946 c0 -12 11 -16 41 -16 52 0 48 24 -4 28 -28 2 -37 -1 -37
-12z"/>
<path d="M6070 11945 c0 -10 11 -15 35 -15 24 0 35 5 35 15 0 10 -11 15 -35
15 -24 0 -35 -5 -35 -15z"/>
<path d="M6230 11945 c0 -10 11 -15 35 -15 24 0 35 5 35 15 0 10 -11 15 -35
15 -24 0 -35 -5 -35 -15z"/>
<path d="M6380 11945 c0 -13 8 -16 38 -13 20 2 37 8 37 13 0 6 -17 11 -37 13
-30 3 -38 0 -38 -13z"/>
<path d="M6540 11945 c0 -10 11 -15 35 -15 24 0 35 5 35 15 0 10 -11 15 -35
15 -24 0 -35 -5 -35 -15z"/>
<path d="M6697 11954 c-13 -13 5 -24 39 -24 24 0 34 5 34 15 0 10 -10 15 -33
15 -19 0 -37 -3 -40 -6z"/>
<path d="M6850 11945 c0 -13 8 -16 38 -13 20 2 37 8 37 13 0 6 -17 11 -37 13
-30 3 -38 0 -38 -13z"/>
<path d="M7010 11945 c0 -10 11 -15 35 -15 24 0 35 5 35 15 0 10 -11 15 -35
15 -24 0 -35 -5 -35 -15z"/>
<path d="M7167 11953 c-16 -15 -5 -23 33 -23 29 0 40 4 40 15 0 10 -10 15 -33
15 -19 0 -37 -3 -40 -7z"/>
<path d="M7637 11953 c-16 -15 -5 -23 33 -23 29 0 40 4 40 15 0 10 -10 15 -33
15 -19 0 -37 -3 -40 -7z"/>
<path d="M7790 11945 c0 -10 11 -15 35 -15 24 0 35 5 35 15 0 10 -11 15 -35
15 -24 0 -35 -5 -35 -15z"/>
<path d="M7950 11945 c0 -10 11 -15 35 -15 24 0 35 5 35 15 0 10 -11 15 -35
15 -24 0 -35 -5 -35 -15z"/>
<path d="M8100 11946 c0 -12 11 -16 41 -16 52 0 48 24 -4 28 -28 2 -37 -1 -37
-12z"/>
<path d="M8260 11945 c0 -10 11 -15 35 -15 24 0 35 5 35 15 0 10 -11 15 -35
15 -24 0 -35 -5 -35 -15z"/>
<path d="M8417 11954 c-13 -13 5 -24 39 -24 24 0 34 5 34 15 0 10 -10 15 -33
15 -19 0 -37 -3 -40 -6z"/>
<path d="M8570 11945 c0 -13 8 -16 38 -13 20 2 37 8 37 13 0 6 -17 11 -37 13
-30 3 -38 0 -38 -13z"/>
<path d="M8730 11945 c0 -10 11 -15 35 -15 24 0 35 5 35 15 0 10 -11 15 -35
15 -24 0 -35 -5 -35 -15z"/>
<path d="M8887 11954 c-13 -13 5 -24 39 -24 24 0 34 5 34 15 0 10 -10 15 -33
15 -19 0 -37 -3 -40 -6z"/>
<path d="M9040 11946 c0 -12 11 -16 41 -16 52 0 48 24 -4 28 -28 2 -37 -1 -37
-12z"/>
<path d="M4235 11167 c-3 -7 -4 -145 -3 -307 l3 -295 212 -3 212 -2 96 94 95
95 0 215 0 216 -305 0 c-237 0 -307 -3 -310 -13z m575 -207 l0 -180 -85 0 -85
0 0 -90 0 -90 -185 0 -185 0 0 270 0 270 270 0 270 0 0 -180z m-75 -270 c-27
-27 -53 -50 -57 -50 -4 0 -8 23 -8 50 l0 50 57 0 57 0 -49 -50z"/>
<path d="M9817 10953 c-4 -3 -7 -19 -7 -35 0 -21 5 -28 20 -28 16 0 20 7 20
35 0 33 -16 46 -33 28z"/>
<path d="M9817 10793 c-4 -3 -7 -19 -7 -35 0 -21 5 -28 20 -28 16 0 20 7 20
35 0 33 -16 46 -33 28z"/>
<path d="M9810 10605 c0 -28 4 -35 20 -35 16 0 20 7 20 35 0 28 -4 35 -20 35
-16 0 -20 -7 -20 -35z"/>
<path d="M7310 10435 l0 -85 90 0 90 0 0 30 0 30 258 0 257 -1 -54 -19 c-275
-99 -462 -311 -537 -608 -27 -105 -30 -112 -49 -112 -21 0 -65 -59 -65 -89 0
-54 47 -100 103 -101 83 0 129 102 74 162 -13 14 -30 27 -37 30 -23 7 22 166
80 283 96 196 241 325 447 398 77 28 215 57 269 57 31 0 34 -3 34 -30 l0 -30
90 0 90 0 0 31 0 32 71 -7 c382 -38 659 -277 748 -646 l18 -75 -33 -31 c-97
-90 25 -233 125 -148 26 21 31 33 31 69 0 49 -26 89 -65 99 -17 4 -25 13 -25
29 0 46 -43 175 -90 272 -96 197 -226 318 -435 402 l-80 33 258 0 257 0 0 -30
0 -30 85 0 85 0 0 85 0 85 -85 0 -85 0 0 -35 0 -35 -390 0 -390 0 0 35 0 35
-90 0 -90 0 0 -35 0 -35 -390 0 -390 0 0 35 0 35 -90 0 -90 0 0 -85z m140 0
l0 -45 -50 0 -50 0 0 45 0 45 50 0 50 0 0 -45z m960 0 l0 -45 -50 0 -50 0 0
45 0 45 50 0 50 0 0 -45z m950 0 l0 -45 -44 0 c-40 0 -44 2 -48 28 -7 53 0 62
48 62 l44 0 0 -45z m-1920 -815 c37 -37 14 -100 -37 -100 -28 0 -63 33 -63 60
0 11 9 29 20 40 11 11 29 20 40 20 11 0 29 -9 40 -20z m1912 3 c38 -34 13
-103 -37 -103 -53 0 -76 74 -33 104 29 20 47 20 70 -1z"/>
<path d="M9810 10445 c0 -28 4 -35 20 -35 16 0 20 7 20 35 0 28 -4 35 -20 35
-16 0 -20 -7 -20 -35z"/>
<path d="M9810 10285 c0 -28 4 -35 20 -35 16 0 20 7 20 35 0 28 -4 35 -20 35
-16 0 -20 -7 -20 -35z"/>
<path d="M3120 10181 c-13 -26 -3 -50 24 -56 11 -3 732 -4 1600 -3 1491 3
1579 4 1590 21 8 12 8 22 0 35 -11 16 -100 17 -1607 20 -1568 2 -1596 2 -1607
-17z"/>
<path d="M9810 10125 c0 -28 4 -35 20 -35 16 0 20 7 20 35 0 28 -4 35 -20 35
-16 0 -20 -7 -20 -35z"/>
<path d="M9810 9965 c0 -28 4 -35 20 -35 16 0 20 7 20 35 0 28 -4 35 -20 35
-16 0 -20 -7 -20 -35z"/>
<path d="M3120 9931 c-13 -26 -3 -50 24 -56 11 -3 732 -4 1600 -3 1491 3 1579
4 1590 21 8 12 8 22 0 35 -11 16 -100 17 -1607 20 -1568 2 -1596 2 -1607 -17z"/>
<path d="M9810 9805 c0 -28 4 -35 20 -35 16 0 20 7 20 35 0 28 -4 35 -20 35
-16 0 -20 -7 -20 -35z"/>
<path d="M3126 9684 c-9 -8 -16 -19 -16 -24 0 -5 7 -16 16 -24 14 -14 142 -16
1264 -16 687 0 1255 3 1264 6 19 7 21 45 4 62 -9 9 -304 12 -1264 12 -1125 0
-1254 -2 -1268 -16z"/>
<path d="M9810 9645 c0 -28 4 -35 20 -35 16 0 20 7 20 35 0 28 -4 35 -20 35
-16 0 -20 -7 -20 -35z"/>
<path d="M9810 9485 c0 -28 4 -35 20 -35 16 0 20 7 20 35 0 28 -4 35 -20 35
-16 0 -20 -7 -20 -35z"/>
<path d="M9812 9328 c2 -22 9 -34 21 -36 14 -3 17 4 17 32 0 30 -4 36 -21 36
-17 0 -20 -5 -17 -32z"/>
<path d="M9827 9204 c-4 -4 -24 -10 -44 -13 -34 -6 -38 -10 -41 -39 -2 -24 -8
-32 -23 -32 -10 0 -19 -7 -19 -15 0 -8 9 -15 19 -15 15 0 21 -8 23 -32 3 -29
7 -33 35 -36 24 -2 33 -9 35 -25 2 -12 10 -22 18 -22 8 0 16 10 18 22 2 16 11
23 35 25 27 3 33 7 35 33 2 17 8 35 13 42 7 7 6 14 -1 18 -5 3 -10 22 -10 41
0 32 -2 34 -33 34 -18 0 -38 5 -43 10 -6 6 -13 7 -17 4z m53 -100 l0 -55 -47
3 -48 3 -3 53 -3 52 50 0 51 0 0 -56z"/>
<path d="M2530 9105 c0 -10 10 -15 30 -15 20 0 30 5 30 15 0 10 -10 15 -30 15
-20 0 -30 -5 -30 -15z"/>
<path d="M2670 9105 c0 -11 11 -15 40 -15 29 0 40 4 40 15 0 11 -11 15 -40 15
-29 0 -40 -4 -40 -15z"/>
<path d="M2830 9105 c0 -11 11 -15 40 -15 29 0 40 4 40 15 0 11 -11 15 -40 15
-29 0 -40 -4 -40 -15z"/>
<path d="M2990 9105 c0 -11 11 -15 40 -15 29 0 40 4 40 15 0 11 -11 15 -40 15
-29 0 -40 -4 -40 -15z"/>
<path d="M3150 9105 c0 -11 11 -15 40 -15 29 0 40 4 40 15 0 11 -11 15 -40 15
-29 0 -40 -4 -40 -15z"/>
<path d="M3310 9105 c0 -11 11 -15 40 -15 29 0 40 4 40 15 0 11 -11 15 -40 15
-29 0 -40 -4 -40 -15z"/>
<path d="M3470 9105 c0 -11 11 -15 40 -15 29 0 40 4 40 15 0 11 -11 15 -40 15
-29 0 -40 -4 -40 -15z"/>
<path d="M3630 9105 c0 -11 11 -15 40 -15 29 0 40 4 40 15 0 11 -11 15 -40 15
-29 0 -40 -4 -40 -15z"/>
<path d="M3790 9105 c0 -11 11 -15 40 -15 29 0 40 4 40 15 0 11 -11 15 -40 15
-29 0 -40 -4 -40 -15z"/>
<path d="M3950 9105 c0 -13 8 -16 38 -13 20 2 37 8 37 13 0 6 -17 11 -37 13
-30 3 -38 0 -38 -13z"/>
<path d="M4110 9105 c0 -13 8 -16 38 -13 20 2 37 8 37 13 0 6 -17 11 -37 13
-30 3 -38 0 -38 -13z"/>
<path d="M4270 9105 c0 -13 8 -16 38 -13 20 2 37 8 37 13 0 6 -17 11 -37 13
-30 3 -38 0 -38 -13z"/>
<path d="M4430 9105 c0 -13 8 -16 38 -13 20 2 37 8 37 13 0 6 -17 11 -37 13
-30 3 -38 0 -38 -13z"/>
<path d="M4590 9105 c0 -13 8 -16 38 -13 20 2 37 8 37 13 0 6 -17 11 -37 13
-30 3 -38 0 -38 -13z"/>
<path d="M4750 9105 c0 -13 8 -16 38 -13 20 2 37 8 37 13 0 6 -17 11 -37 13
-30 3 -38 0 -38 -13z"/>
<path d="M4910 9105 c0 -13 8 -16 38 -13 20 2 37 8 37 13 0 6 -17 11 -37 13
-30 3 -38 0 -38 -13z"/>
<path d="M5070 9105 c0 -10 11 -15 35 -15 24 0 35 5 35 15 0 10 -11 15 -35 15
-24 0 -35 -5 -35 -15z"/>
<path d="M5230 9105 c0 -10 11 -15 35 -15 24 0 35 5 35 15 0 10 -11 15 -35 15
-24 0 -35 -5 -35 -15z"/>
<path d="M5390 9105 c0 -10 11 -15 35 -15 24 0 35 5 35 15 0 10 -11 15 -35 15
-24 0 -35 -5 -35 -15z"/>
<path d="M5550 9105 c0 -10 11 -15 35 -15 24 0 35 5 35 15 0 10 -11 15 -35 15
-24 0 -35 -5 -35 -15z"/>
<path d="M5710 9105 c0 -10 11 -15 35 -15 24 0 35 5 35 15 0 10 -11 15 -35 15
-24 0 -35 -5 -35 -15z"/>
<path d="M5870 9105 c0 -10 11 -15 35 -15 24 0 35 5 35 15 0 10 -11 15 -35 15
-24 0 -35 -5 -35 -15z"/>
<path d="M6030 9105 c0 -10 11 -15 35 -15 24 0 35 5 35 15 0 10 -11 15 -35 15
-24 0 -35 -5 -35 -15z"/>
<path d="M6190 9105 c0 -10 11 -15 35 -15 24 0 35 5 35 15 0 10 -11 15 -35 15
-24 0 -35 -5 -35 -15z"/>
<path d="M6350 9105 c0 -10 11 -15 35 -15 24 0 35 5 35 15 0 10 -11 15 -35 15
-24 0 -35 -5 -35 -15z"/>
<path d="M6510 9105 c0 -10 11 -15 35 -15 24 0 35 5 35 15 0 10 -11 15 -35 15
-24 0 -35 -5 -35 -15z"/>
<path d="M6667 9114 c-13 -13 5 -24 39 -24 24 0 34 5 34 15 0 10 -10 15 -33
15 -19 0 -37 -3 -40 -6z"/>
<path d="M6827 9114 c-13 -13 5 -24 39 -24 24 0 34 5 34 15 0 10 -10 15 -33
15 -19 0 -37 -3 -40 -6z"/>
<path d="M6987 9114 c-13 -13 5 -24 39 -24 24 0 34 5 34 15 0 10 -10 15 -33
15 -19 0 -37 -3 -40 -6z"/>
<path d="M7147 9114 c-13 -13 5 -24 39 -24 24 0 34 5 34 15 0 10 -10 15 -33
15 -19 0 -37 -3 -40 -6z"/>
<path d="M7307 9114 c-13 -13 5 -24 39 -24 24 0 34 5 34 15 0 10 -10 15 -33
15 -19 0 -37 -3 -40 -6z"/>
<path d="M7467 9114 c-13 -13 5 -24 39 -24 24 0 34 5 34 15 0 10 -10 15 -33
15 -19 0 -37 -3 -40 -6z"/>
<path d="M7627 9114 c-13 -13 5 -24 39 -24 24 0 34 5 34 15 0 10 -10 15 -33
15 -19 0 -37 -3 -40 -6z"/>
<path d="M7787 9114 c-13 -13 5 -24 39 -24 24 0 34 5 34 15 0 10 -10 15 -33
15 -19 0 -37 -3 -40 -6z"/>
<path d="M7942 9108 c3 -7 21 -14 41 -16 28 -2 37 1 37 12 0 12 -11 16 -41 16
-28 0 -39 -4 -37 -12z"/>
<path d="M8100 9105 c0 -11 11 -15 40 -15 29 0 40 4 40 15 0 11 -11 15 -40 15
-29 0 -40 -4 -40 -15z"/>
<path d="M8260 9105 c0 -11 11 -15 40 -15 29 0 40 4 40 15 0 11 -11 15 -40 15
-29 0 -40 -4 -40 -15z"/>
<path d="M8420 9105 c0 -11 11 -15 40 -15 29 0 40 4 40 15 0 11 -11 15 -40 15
-29 0 -40 -4 -40 -15z"/>
<path d="M8580 9105 c0 -11 11 -15 40 -15 29 0 40 4 40 15 0 11 -11 15 -40 15
-29 0 -40 -4 -40 -15z"/>
<path d="M8740 9105 c0 -11 11 -15 40 -15 29 0 40 4 40 15 0 11 -11 15 -40 15
-29 0 -40 -4 -40 -15z"/>
<path d="M8900 9105 c0 -11 11 -15 40 -15 29 0 40 4 40 15 0 11 -11 15 -40 15
-29 0 -40 -4 -40 -15z"/>
<path d="M9060 9105 c0 -11 11 -15 40 -15 29 0 40 4 40 15 0 11 -11 15 -40 15
-29 0 -40 -4 -40 -15z"/>
<path d="M9220 9105 c0 -13 8 -16 38 -13 20 2 37 8 37 13 0 6 -17 11 -37 13
-30 3 -38 0 -38 -13z"/>
<path d="M9380 9105 c0 -13 8 -16 38 -13 20 2 37 8 37 13 0 6 -17 11 -37 13
-30 3 -38 0 -38 -13z"/>
<path d="M9540 9105 c0 -13 8 -16 38 -13 20 2 37 8 37 13 0 6 -17 11 -37 13
-30 3 -38 0 -38 -13z"/>
<path d="M10020 9105 c0 -13 8 -16 38 -13 20 2 37 8 37 13 0 6 -17 11 -37 13
-30 3 -38 0 -38 -13z"/>
<path d="M10180 9105 c0 -10 11 -15 35 -15 24 0 35 5 35 15 0 10 -11 15 -35
15 -24 0 -35 -5 -35 -15z"/>
<path d="M10340 9105 c0 -13 8 -16 38 -13 20 2 37 8 37 13 0 6 -17 11 -37 13
-30 3 -38 0 -38 -13z"/>
<path d="M10500 9105 c0 -10 11 -15 35 -15 24 0 35 5 35 15 0 10 -11 15 -35
15 -24 0 -35 -5 -35 -15z"/>
<path d="M10660 9105 c0 -10 11 -15 35 -15 24 0 35 5 35 15 0 10 -11 15 -35
15 -24 0 -35 -5 -35 -15z"/>
<path d="M10820 9105 c0 -10 11 -15 35 -15 24 0 35 5 35 15 0 10 -11 15 -35
15 -24 0 -35 -5 -35 -15z"/>
<path d="M10980 9105 c0 -10 11 -15 35 -15 24 0 35 5 35 15 0 10 -11 15 -35
15 -24 0 -35 -5 -35 -15z"/>
<path d="M11140 9105 c0 -10 11 -15 35 -15 24 0 35 5 35 15 0 10 -11 15 -35
15 -24 0 -35 -5 -35 -15z"/>
<path d="M11300 9105 c0 -10 11 -15 35 -15 24 0 35 5 35 15 0 10 -11 15 -35
15 -24 0 -35 -5 -35 -15z"/>
<path d="M11460 9105 c0 -10 11 -15 35 -15 24 0 35 5 35 15 0 10 -11 15 -35
15 -24 0 -35 -5 -35 -15z"/>
<path d="M11620 9105 c0 -10 11 -15 35 -15 24 0 35 5 35 15 0 10 -11 15 -35
15 -24 0 -35 -5 -35 -15z"/>
<path d="M9823 8883 c-7 -3 -13 -20 -13 -40 0 -27 4 -34 18 -31 10 2 18 14 20
32 4 31 -6 46 -25 39z"/>
<path d="M9823 8723 c-7 -3 -13 -20 -13 -40 0 -27 4 -34 18 -31 10 2 18 14 20
32 4 31 -6 46 -25 39z"/>
<path d="M10194 8656 c-3 -8 -4 -23 -2 -33 3 -17 40 -18 808 -18 l805 0 0 30
0 30 -803 3 c-693 2 -803 0 -808 -12z"/>
<path d="M9823 8563 c-7 -3 -13 -20 -13 -40 0 -27 4 -34 18 -31 10 2 18 14 20
32 4 31 -6 46 -25 39z"/>
<path d="M7306 8443 c-40 -10 -97 -54 -122 -95 -19 -29 -28 -60 -31 -102 -7
-83 31 -157 102 -201 l48 -30 471 0 471 0 45 25 c27 15 58 45 78 74 28 42 32
57 32 113 0 71 -20 121 -67 165 -61 58 -61 58 -555 57 -249 -1 -462 -4 -472
-6z m941 -44 c34 -13 80 -55 99 -91 18 -35 18 -121 0 -156 -19 -37 -55 -68
-98 -87 -55 -23 -890 -23 -945 0 -48 20 -71 41 -94 87 -34 66 -17 161 38 210
51 46 63 47 530 48 289 0 451 -4 470 -11z"/>
<path d="M8826 8443 c-40 -10 -97 -54 -123 -96 -23 -35 -28 -53 -28 -113 0
-61 4 -77 30 -120 20 -31 47 -58 75 -74 l45 -25 451 -3 c363 -2 459 0 491 11
35 12 41 12 50 -1 12 -19 33 -7 33 18 0 11 14 40 32 65 43 61 52 159 19 222
-25 50 -83 100 -131 113 -35 10 -907 12 -944 3z m941 -44 c34 -13 80 -55 99
-91 17 -32 18 -105 3 -145 -15 -40 -48 -73 -94 -94 -37 -17 -74 -19 -478 -19
-463 0 -479 1 -530 48 -31 28 -57 88 -57 132 0 44 26 105 56 131 56 49 51 48
526 49 292 0 456 -4 475 -11z"/>
<path d="M10194 8406 c-3 -8 -4 -23 -2 -33 3 -17 40 -18 808 -18 l805 0 0 30
0 30 -803 3 c-693 2 -803 0 -808 -12z"/>
<path d="M10197 8163 c-14 -13 -6 -53 12 -63 13 -6 177 -10 465 -10 391 0 446
2 460 16 9 8 16 21 16 28 0 35 -17 36 -485 36 -254 0 -465 -3 -468 -7z"/>
<path d="M9814 7917 c-9 -25 0 -62 16 -62 10 0 15 10 15 34 0 36 -21 54 -31
28z"/>
<path d="M9814 7757 c-9 -25 0 -62 16 -62 10 0 15 10 15 34 0 36 -21 54 -31
28z"/>
<path d="M9814 7596 c-8 -22 3 -49 19 -43 6 2 12 14 12 27 0 27 -22 39 -31 16z"/>
<path d="M14184 10589 c-9 -15 2 -22 60 -44 27 -10 66 -33 86 -51 41 -37 60
-43 60 -18 0 26 -69 82 -127 104 -62 23 -69 24 -79 9z"/>
<path d="M10533 6703 c-7 -2 -13 -13 -13 -24 0 -16 7 -19 45 -19 33 0 47 5 52
16 10 27 -43 44 -84 27z"/>
<path d="M10732 6702 c-7 -2 -12 -12 -12 -23 0 -18 9 -19 160 -19 151 0 160 1
160 19 0 11 -8 22 -17 25 -20 6 -273 4 -291 -2z"/>
<path d="M11071 6701 c-8 -5 -11 -16 -8 -25 6 -15 109 -16 1136 -16 694 0
1139 -4 1155 -10 50 -19 41 10 201 -615 47 -181 112 -436 145 -565 33 -129 88
-341 121 -470 67 -263 72 -280 94 -280 22 0 19 29 -15 160 -17 63 -85 327
-151 585 -67 259 -161 624 -209 812 -49 188 -96 353 -106 368 -9 14 -31 34
-48 43 -29 16 -119 17 -1166 19 -625 1 -1142 -2 -1149 -6z"/>
<path d="M12070 5817 c-34 -12 -35 -14 -40 -72 -7 -70 -27 -114 -71 -148 -29
-22 -31 -28 -24 -65 9 -56 62 -139 110 -173 56 -40 132 -53 193 -33 88 30 139
101 148 207 17 186 -153 339 -316 284z m147 -48 c92 -44 146 -156 125 -258
-20 -96 -81 -151 -168 -151 -83 0 -157 58 -188 147 -13 37 -12 39 25 82 38 43
52 77 64 153 4 23 12 38 23 41 39 10 78 6 119 -14z"/>
<path d="M13924 4635 c-9 -22 10 -70 29 -73 12 -3 17 4 17 23 0 49 -33 85 -46
50z"/>
<path d="M15925 3408 c-19 -112 -126 -246 -258 -322 -64 -37 -79 -57 -46 -64
26 -5 141 72 209 139 74 72 126 164 136 243 6 42 5 46 -14 46 -16 0 -22 -9
-27 -42z"/>
<path d="M12914 3139 c-13 -21 15 -30 176 -59 430 -78 1000 -140 1277 -140 75
0 84 2 81 18 -3 15 -21 18 -148 24 -379 18 -872 76 -1233 144 -150 28 -144 27
-153 13z"/>
<path d="M14710 3000 c-25 -4 -71 -11 -102 -14 -48 -6 -58 -11 -58 -27 0 -13
7 -19 23 -18 42 1 196 25 203 32 8 8 -3 37 -13 36 -4 -1 -28 -5 -53 -9z"/>
<path d="M15887 16200 c-267 -32 -504 -197 -623 -432 -37 -73 -84 -224 -84
-268 l0 -28 -73 5 c-147 11 -339 -52 -453 -149 -109 -93 -186 -214 -221 -350
-15 -59 -21 -70 -43 -74 -116 -26 -193 -72 -250 -151 -56 -79 -73 -136 -68
-241 2 -71 8 -98 32 -146 52 -107 147 -180 264 -205 37 -8 297 -11 847 -11
l795 0 0 -275 c0 -238 2 -275 15 -275 13 0 15 37 15 275 l0 274 748 3 c689 3
750 4 792 21 212 84 308 317 213 519 -17 34 -44 77 -61 93 -28 29 -30 34 -21
75 13 72 10 215 -7 298 -34 166 -110 307 -229 427 -97 96 -203 162 -335 206
-89 31 -104 33 -240 33 -80 1 -163 -2 -185 -7 -39 -7 -41 -6 -73 40 -164 241
-466 377 -755 343z m203 -41 c95 -15 205 -55 285 -102 81 -47 209 -171 250
-241 28 -48 28 -48 69 -41 109 17 192 22 269 14 335 -34 618 -282 697 -609 21
-91 26 -247 11 -330 -9 -43 -8 -45 35 -95 63 -72 87 -140 82 -240 -5 -133 -68
-229 -186 -287 l-67 -33 -745 0 -745 0 -5 133 c-3 78 -9 132 -15 132 -6 0 -12
-54 -15 -132 l-5 -133 -820 0 -820 0 -62 29 c-167 77 -244 277 -171 438 51
111 152 189 265 204 l52 6 16 75 c67 302 342 509 652 490 67 -4 93 -2 93 6 2
42 32 173 54 231 39 102 92 182 176 266 173 174 419 257 650 219z"/>
<path d="M16010 15165 c0 -87 3 -105 15 -105 12 0 15 18 15 105 0 87 -3 105
-15 105 -12 0 -15 -18 -15 -105z"/>
<path d="M16012 14778 c4 -243 22 -241 26 2 2 157 0 180 -13 180 -13 0 -15
-23 -13 -182z"/>
<path d="M12848 15440 c-106 -57 -126 -194 -41 -282 111 -114 303 -38 303 121
0 136 -142 224 -262 161z m159 -40 c124 -75 55 -276 -89 -257 -126 17 -169
166 -70 246 45 38 109 42 159 11z"/>
<path d="M15850 13719 c0 -16 163 -219 176 -219 13 0 174 203 174 219 0 29
-35 3 -96 -71 -37 -46 -70 -86 -73 -90 -4 -4 -38 33 -76 82 -62 79 -105 112
-105 79z"/>
<path d="M16905 10233 c-10 -140 -9 -137 -71 -162 -62 -26 -47 -32 -157 62
-37 31 -71 57 -75 57 -10 0 -232 -223 -232 -233 0 -5 31 -46 70 -91 l70 -83
-24 -59 -24 -59 -106 -10 c-58 -5 -110 -15 -116 -21 -7 -7 -10 -65 -8 -164 l3
-154 35 -8 c19 -4 70 -10 113 -13 l79 -7 14 -36 c8 -21 19 -45 25 -55 12 -21
15 -16 -66 -113 -36 -43 -65 -82 -65 -87 0 -16 214 -227 230 -227 8 0 50 30
94 67 l78 66 57 -20 c64 -23 65 -25 78 -163 l8 -85 165 0 165 0 8 70 c18 159
15 154 78 179 l56 23 79 -69 c44 -37 86 -68 94 -68 17 0 230 212 230 228 0 5
-31 47 -69 93 l-68 82 22 56 23 56 74 8 c40 4 91 11 113 15 l40 7 3 145 c1 80
0 155 -2 166 -5 19 -16 22 -116 30 l-111 9 -24 60 -24 59 22 25 c12 14 27 31
34 38 37 41 83 101 83 109 0 5 -51 61 -114 123 l-115 114 -71 -59 c-113 -93
-99 -87 -163 -63 -62 24 -60 17 -72 172 l-7 77 -168 0 -168 0 -7 -87z m318
-58 c5 -55 11 -103 15 -106 4 -4 40 -20 80 -37 l72 -30 83 68 82 69 86 -82
c47 -45 89 -88 93 -96 4 -8 -18 -42 -59 -90 -36 -42 -65 -81 -65 -86 0 -6 13
-42 29 -80 33 -79 30 -77 184 -91 l67 -6 0 -133 0 -133 -104 -7 c-57 -4 -108
-10 -113 -14 -5 -3 -17 -26 -26 -51 -8 -25 -21 -59 -28 -76 -12 -30 -11 -33
54 -110 37 -43 67 -81 67 -84 0 -3 -41 -46 -90 -95 -69 -69 -94 -87 -104 -80
-8 6 -47 36 -86 69 l-70 59 -58 -26 c-31 -14 -67 -28 -78 -31 -20 -6 -23 -16
-29 -99 -10 -139 4 -127 -145 -127 l-128 0 -6 28 c-3 15 -8 64 -11 109 -6 73
-10 83 -29 89 -11 3 -47 17 -78 31 l-58 26 -83 -71 -84 -70 -93 93 -93 94 59
71 c32 39 63 77 68 84 6 8 -1 39 -19 87 -16 41 -30 76 -32 79 -2 2 -52 9 -111
15 l-107 10 -3 132 -3 131 68 6 c37 4 88 10 112 14 44 7 45 8 73 77 15 39 28
75 28 80 0 6 -30 45 -66 89 l-67 78 94 94 94 94 82 -69 82 -69 79 32 80 31 7
80 c3 44 8 93 11 108 l6 28 131 -3 132 -3 8 -100z"/>
<path d="M17017 9840 c-157 -27 -287 -167 -303 -327 -16 -153 63 -294 208
-370 48 -25 63 -28 158 -28 101 0 108 1 168 34 76 41 135 104 170 179 22 48
27 71 27 147 0 81 -3 97 -32 155 -35 74 -60 104 -121 148 -74 53 -183 77 -275
62z m196 -63 c118 -54 186 -153 195 -282 8 -136 -70 -262 -200 -320 -54 -24
-69 -27 -142 -23 -94 5 -157 32 -220 95 -147 146 -115 403 63 510 98 59 204
66 304 20z"/>
<path d="M6615 6449 c-299 -73 -527 -307 -596 -611 l-23 -96 -120 -4 c-98 -3
-135 -9 -194 -30 -226 -81 -385 -267 -436 -509 -5 -22 -13 -28 -48 -33 -213
-32 -355 -264 -292 -477 36 -120 125 -212 243 -249 61 -19 90 -20 872 -20
l809 0 0 -170 c0 -163 1 -170 20 -170 19 0 20 7 20 170 l0 170 753 2 752 3 67
33 c133 65 210 186 211 332 1 95 -21 161 -79 240 l-44 60 9 82 c31 274 -83
557 -296 734 -81 66 -240 147 -338 170 -76 18 -252 24 -350 11 l-60 -8 -25 42
c-64 105 -229 239 -362 292 -148 59 -342 73 -493 36z m371 -39 c194 -50 351
-160 459 -323 31 -47 43 -57 59 -53 114 31 285 32 401 2 33 -9 105 -38 160
-66 302 -150 477 -475 435 -805 l-12 -96 37 -41 c155 -171 109 -427 -97 -535
l-53 -28 -1587 -3 c-1582 -2 -1587 -2 -1642 18 -72 27 -144 94 -181 167 -27
51 -30 68 -30 148 0 106 19 157 86 230 52 56 114 89 194 104 32 6 60 11 62 11
2 0 3 11 3 24 0 38 39 155 73 221 44 84 164 201 252 247 102 53 180 71 315 72
115 1 115 1 118 26 37 333 262 596 582 679 104 28 261 28 366 1z"/>
<path d="M6755 5435 c-80 -97 -94 -125 -61 -125 7 0 43 38 80 85 37 47 71 85
75 85 3 0 38 -38 76 -85 68 -82 95 -102 95 -69 0 17 -157 214 -171 214 -4 0
-47 -47 -94 -105z"/>
<path d="M6830 5010 c0 -423 0 -430 20 -430 20 0 20 7 20 430 0 423 0 430 -20
430 -20 0 -20 -7 -20 -430z"/>
<path d="M6830 3876 c0 -100 1 -106 20 -106 20 0 21 5 18 102 -3 89 -5 103
-20 106 -16 3 -18 -7 -18 -102z"/>
</g>
</svg>
